<?xml version="1.0" encoding="utf-8"?>
<!-- Generator: Adobe Illustrator 28.2.0, SVG Export Plug-In . SVG Version: 6.00 Build 0)  -->
<svg version="1.1" id="Calque_1" xmlns="http://www.w3.org/2000/svg" xmlns:xlink="http://www.w3.org/1999/xlink" x="0px" y="0px"
	 viewBox="0 0 512 408" style="enable-background:new 0 0 512 408;" xml:space="preserve">
<style type="text/css">
	.st0{fill:#212529;}
</style>
<g>
	<path class="st0" d="M464.5,142.6c-8.7-28.1-9.9-62.7-9-89.3c1-27.7-20.6-53.3-49.9-53.3H106.3C77.1,0,55.5,25.6,56.5,53.3
		c0.9,26.6-0.3,61.2-9,89.3C38.8,170.9,24.1,188.7,0,191v26c24.1,2.3,38.8,20.1,47.5,48.4c8.7,28.1,9.9,62.7,9,89.3
		c-1,27.7,20.6,53.3,49.9,53.3h299.4c29.2,0,50.8-25.6,49.9-53.3c-0.9-26.6,0.3-61.2,9-89.3c8.7-28.2,23.4-46.1,47.5-48.4v-26
		C487.9,188.7,473.2,170.9,464.5,142.6z M267.1,312.5h-89.2v-217h88.7c39.4,0,65.3,21.4,65.3,54.1c0,23-17.4,43.6-39.6,47.2v1.2
		c30.2,3.3,50.5,24.2,50.5,53.1C342.9,289.3,314.4,312.5,267.1,312.5z"/>
	<path class="st0" d="M258,213.5h-45.6v71.4H260c31.1,0,47.6-12.5,47.6-35.9C307.6,225.5,290.7,213.5,258,213.5z"/>
	<path class="st0" d="M297.5,154.3c0-20.2-14.2-31.3-39.1-31.3h-45.9v64.8h38.7C281,187.8,297.5,175.8,297.5,154.3z"/>
</g>
</svg>
