<?xml version="1.0" encoding="utf-8"?>
<!-- Generator: Adobe Illustrator 27.8.1, SVG Export Plug-In . SVG Version: 6.00 Build 0)  -->
<svg version="1.1" id="Layer_1" xmlns="http://www.w3.org/2000/svg" xmlns:xlink="http://www.w3.org/1999/xlink" x="0px" y="0px"
	 viewBox="0 0 180.7 136.2" style="enable-background:new 0 0 180.7 136.2;" xml:space="preserve">
<style type="text/css">
	.st0{fill:#FFFFFF;}
</style>
<path id="_256" class="st0" d="M162.1,21.3C149.4,7.6,131.5-0.1,112.9,0C94.7,0,76.2,7.8,64.3,20.4c-2.2-0.2-4.4-0.4-6.5-0.4
	C22.1,20,0,50,0,77.8c0.1,15,5.9,29.4,16.2,40.4c10.8,11.5,25.8,18,41.6,18h55.1c37.4,0,67.8-30.7,67.8-68.3
	C180.5,50.6,173.9,34,162.1,21.3z M56.7,126.4c-26.5,0-47.9-21.5-47.9-48c0-26.3,21.3-47.7,47.7-47.9c11.7,0,23.1,4.3,31.8,12.1
	l0.2,0.2l19.9,20.4c3.3,3.4,3.2,8.8-0.2,12.1c-3.4,3.3-8.8,3.2-12.1-0.2L76.5,54.9c-12.8-11-32.1-9.6-43.1,3.2
	C28.6,63.6,26,70.7,26,78c0,16.8,14.3,31,31.2,31h3.9v0.1c5.6,7.8,21.3,17.3,21.3,17.3H56.7z M154.9,109.2
	c-10.7,11.2-25.5,17.5-41,17.6c-14.7,0-29.7-6.6-41.2-18L46.5,82.4c-3.3-3.4-3.2-8.8,0.1-12.1c1.6-1.6,3.7-2.4,6-2.4
	s4.5,0.9,6.1,2.6l26.1,26.1c8.3,8.3,18.9,13,29.1,13c10.9,0,21.3-4.5,28.8-12.5c7.7-7.9,12-18.5,12-29.5c0-22.6-18.4-40.9-41-41
	c-8.6,0-15.7,1.7-22.7,6.6c-0.1-0.1-2-1.3-4.1-2.6c-1.3-0.8-2.7-1.6-3.9-2.2c-1.2-0.7-4.8-2.4-6.9-3.3c-0.5-0.2-1.2-0.5-1.5-0.6h0.1
	c10.8-10.1,24.2-15,39-15c32.1,0,58,26,58.1,58.1C171.8,83.1,165.8,98.1,154.9,109.2L154.9,109.2z"/>
</svg>
