<?xml version="1.0" encoding="utf-8"?>
<!-- Generator: Adobe Illustrator 27.8.1, SVG Export Plug-In . SVG Version: 6.00 Build 0)  -->
<svg version="1.1" id="Calque_1" xmlns="http://www.w3.org/2000/svg" xmlns:xlink="http://www.w3.org/1999/xlink" x="0px" y="0px"
	 viewBox="0 0 172 247" style="enable-background:new 0 0 172 247;" xml:space="preserve">
<style type="text/css">
	.st0{fill:#FFFFFF;}
</style>
<g id="Group">
	<path class="st0" d="M125.5,92.5h-47V0.5h47c25.4,0,46,20.7,46,46S150.9,92.5,125.5,92.5z M93.5,77.5h32c17.1,0,31-13.9,31-31
		s-13.9-31-31-31h-32V77.5z"/>
	<path class="st0" d="M93.5,92.5h-47c-25.4,0-46-20.7-46-46s20.7-46,46-46h47V92.5z M46.5,15.5c-17.1,0-31,13.9-31,31s13.9,31,31,31
		h32V15.5H46.5z"/>
	<path class="st0" d="M93.5,169.5h-47c-25.4,0-46-20.7-46-46s20.7-46,46-46h47V169.5z M46.5,92.5c-17.1,0-31,13.9-31,31
		s13.9,31,31,31h32V92.5H46.5z"/>
	<path class="st0" d="M46.7,246.5c-25.5,0-46.3-20.7-46.3-46s20.7-46,46-46h47V200C93.5,225.7,72.5,246.5,46.7,246.5z M46.5,169.5
		c-17.1,0-31,13.9-31,31s14,31,31.2,31c17.5,0,31.7-14.1,31.7-31.5v-30.5H46.5z"/>
	<path class="st0" d="M125.5,169.5h-1c-25.4,0-46-20.7-46-46s20.7-46,46-46h1c25.4,0,46,20.7,46,46S150.9,169.5,125.5,169.5z
		 M124.5,92.5c-17.1,0-31,13.9-31,31s13.9,31,31,31h1c17.1,0,31-13.9,31-31s-13.9-31-31-31H124.5z"/>
</g>
</svg>
