<?xml version="1.0" encoding="utf-8"?>
<!-- Generator: Adobe Illustrator 28.0.0, SVG Export Plug-In . SVG Version: 6.00 Build 0)  -->
<svg version="1.1" id="Calque_1" xmlns="http://www.w3.org/2000/svg" xmlns:xlink="http://www.w3.org/1999/xlink" x="0px" y="0px"
	 viewBox="0 0 600 800" style="enable-background:new 0 0 600 800;" xml:space="preserve">
<style type="text/css">
	.st0{fill:#FFFFFF;}
</style>
<path class="st0" d="M200,500c-55.23,0-100-44.77-100-100s44.77-100,100-100c37.01,0,69.3,20.12,86.59,50H393.7
	C371.5,263.74,293.19,200,200,200C89.54,200,0,289.54,0,400s89.54,200,200,200c93.19,0,171.5-63.74,193.7-150H286.59
	C269.3,479.88,237.01,500,200,500z"/>
<path class="st0" d="M200,0C127.14,0,58.84,19.49,0,53.53v122.89C53.08,128.9,123.16,100,200,100c165.69,0,300,134.31,300,300
	S365.69,700,200,700c-76.84,0-146.92-28.9-200-76.41v122.89C58.84,780.51,127.14,800,200,800c220.91,0,400-179.09,400-400
	S420.91,0,200,0z"/>
</svg>
