<?xml version="1.0" encoding="utf-8"?>
<!-- Generator: Adobe Illustrator 28.2.0, SVG Export Plug-In . SVG Version: 6.00 Build 0)  -->
<svg version="1.1" id="Calque_1" xmlns="http://www.w3.org/2000/svg" xmlns:xlink="http://www.w3.org/1999/xlink" x="0px" y="0px"
	 viewBox="0 0 244.1 976.5" style="enable-background:new 0 0 244.1 976.5;" xml:space="preserve">
<style type="text/css">
	.st0{fill:#0ECF82;}
</style>
<path class="st0" d="M81.4,203.4c-22.5,0-40.7-18.2-40.7-40.7s18.2-40.7,40.7-40.7c15.1,0,28.2,8.2,35.2,20.3h43.6
	c-9-35.1-40.9-61-78.8-61c-45,0-81.4,36.4-81.4,81.4s36.4,81.4,81.4,81.4c37.9,0,69.8-25.9,78.8-61h-43.6
	C109.6,195.3,96.4,203.4,81.4,203.4z"/>
<path class="st0" d="M81.4,0C51.7,0,23.9,7.9,0,21.8v50c21.6-19.3,50.1-31.1,81.4-31.1c67.4,0,122.1,54.6,122.1,122.1
	S148.8,284.8,81.4,284.8c-31.2,0-59.8-11.8-81.4-31.1v50c23.9,13.8,51.7,21.8,81.4,21.8c89.9,0,162.8-72.9,162.8-162.8
	S171.3,0,81.4,0z"/>
</svg>
