<?xml version="1.0" encoding="utf-8"?>
<!-- Generator: Adobe Illustrator 28.0.0, SVG Export Plug-In . SVG Version: 6.00 Build 0)  -->
<svg version="1.1" id="Calque_1" xmlns="http://www.w3.org/2000/svg" xmlns:xlink="http://www.w3.org/1999/xlink" x="0px" y="0px"
	 viewBox="0 0 600 800" style="enable-background:new 0 0 600 800;" xml:space="preserve">
<style type="text/css">
	.st0{fill:#111111;}
</style>
<path class="st0" d="M200,500c-55.2,0-100-44.8-100-100s44.8-100,100-100c37,0,69.3,20.1,86.6,50h107.1
	C371.5,263.7,293.2,200,200,200C89.5,200,0,289.5,0,400s89.5,200,200,200c93.2,0,171.5-63.7,193.7-150H286.6
	C269.3,479.9,237,500,200,500z"/>
<path class="st0" d="M200,0C127.1,0,58.8,19.5,0,53.5v122.9C53.1,128.9,123.2,100,200,100c165.7,0,300,134.3,300,300
	S365.7,700,200,700c-76.8,0-146.9-28.9-200-76.4v122.9c58.8,34,127.1,53.5,200,53.5c220.9,0,400-179.1,400-400S420.9,0,200,0z"/>
</svg>
