<?xml version="1.0" encoding="utf-8"?>
<!-- Generator: Adobe Illustrator 28.2.0, SVG Export Plug-In . SVG Version: 6.00 Build 0)  -->
<svg version="1.1" id="Calque_1" xmlns="http://www.w3.org/2000/svg" xmlns:xlink="http://www.w3.org/1999/xlink" x="0px" y="0px"
	 viewBox="0 0 800 420.8" style="enable-background:new 0 0 800 420.8;" xml:space="preserve">
<style type="text/css">
	.st0{fill:#212529;}
</style>
<path class="st0" d="M262.4,160.9h-26l-14.2,73h23.1c15.3,0,26.8-2.9,34.3-8.7s12.6-15.4,15.2-28.9c2.5-13,1.4-22.1-3.4-27.4
	C286.4,163.6,276.8,160.9,262.4,160.9z M400,36.3c-182.8,0-331,78-331,174.1s148.2,174.1,331,174.1s331-78,331-174.1
	S582.8,36.3,400,36.3z M310.1,241.8c-7.2,6.9-15.9,12.1-25.3,15.2c-9.3,3-21.1,4.5-35.4,4.5h-32.6l-9,46.4h-38l33.9-174.5h73.1
	c22,0,38,5.8,48.1,17.3S338,178.3,334,199c-1.5,8.2-4.4,16.1-8.4,23.4C321.6,229.5,316.5,235.9,310.1,241.8L310.1,241.8z
	 M421.1,261.5l15-77.2c1.7-8.8,1.1-14.8-1.9-18s-9.3-4.8-18.9-4.8h-30.1l-19.4,100H328L361.9,87h37.7l-9,46.4h33.6
	c21.2,0,35.7,3.7,43.7,11.1c8,7.4,10.4,19.3,7.3,35.8l-15.8,81.2H421.1z M630.6,199.1c-1.5,8.2-4.4,16.1-8.4,23.4
	c-3.9,7-9.1,13.5-15.5,19.4c-7.2,6.9-15.8,12.1-25.3,15.2c-9.3,3-21.1,4.5-35.5,4.5h-32.5l-9,46.4h-38l33.9-174.5h73.1
	c22,0,38,5.8,48.1,17.3C631.6,162.3,634.7,178.4,630.6,199.1L630.6,199.1z M559,160.9h-26l-14.2,73h23.1c15.4,0,26.8-2.9,34.3-8.7
	s12.6-15.4,15.2-28.9c2.5-13,1.4-22.1-3.4-27.4S573.5,160.9,559,160.9L559,160.9z"/>
</svg>
